<svg width="66" height="47" viewBox="0 0 66 47" fill="none" xmlns="http://www.w3.org/2000/svg">
<path d="M4.27629 32.5966C3.71149 33.0807 3.14671 33.5648 2.58192 33.9682C3.14671 34.6137 3.55012 35.1785 4.03423 35.7433C4.67971 35.2592 5.16382 34.7751 5.72861 34.3716C6.69683 35.5012 7.58436 36.6308 8.63326 37.8411C6.8582 39.2934 5.16382 40.7457 3.30807 42.198C2.25917 40.8264 1.12958 39.5355 0 38.1638V43.0049C0 45.022 1.61369 46.6357 3.63081 46.6357H6.93888C6.2934 45.8288 5.56724 44.9413 4.92177 44.1345C9.03668 40.7457 13.1516 37.4377 17.3472 33.9682C20.7359 38.0831 24.044 42.198 27.5135 46.3936C27.4328 46.4743 27.3521 46.555 27.1907 46.6357H52.3643L66 33V3.63081C66 1.61369 64.3863 0 62.3692 0H31.3056C31.5477 0.322738 31.7897 0.564797 32.0318 0.887535C27.8362 4.27629 23.802 7.66503 19.6064 11.0538C16.621 7.42298 13.6357 3.7115 10.6504 0.0806895H3.7115C1.69438 0.0806895 0.0806895 1.69438 0.0806895 3.7115V6.37408V9.35942C0.645482 10.0049 1.04891 10.5697 1.53301 11.1345C1.04891 11.5379 0.564797 11.9413 0.0806895 12.3447V12.9095C0.484113 13.3936 0.887535 13.8778 1.29096 14.3619C0.887535 14.6846 0.484113 15.0073 0.0806895 15.3301V16.5403C0.322743 16.8631 0.645482 17.1858 0.887535 17.5892C0.564797 17.8313 0.322743 18.0733 0.0806895 18.3154V20.0905V23.9633C0.161374 24.044 0.161372 24.1247 0.242056 24.1247C0.887533 23.6406 1.45232 23.1565 2.01711 22.6724C2.98533 23.8826 3.95355 25.0122 4.92177 26.2225C4.35697 26.6259 3.87287 27.11 3.14671 27.6748C3.7115 28.3203 4.19561 28.8851 4.59903 29.5306C4.03424 30.0147 3.38875 30.4988 2.82396 30.9829H2.90465L4.27629 32.5966ZM7.50367 0.161367C7.98778 0.726159 8.3912 1.29096 8.87531 1.85575C8.3912 2.25917 7.82641 2.74328 7.18094 3.22738C6.77751 2.66259 6.29341 2.17848 5.8093 1.533C6.37409 1.04889 6.93888 0.645474 7.50367 0.161367ZM3.95355 3.06602C4.35698 3.63081 4.84108 4.11491 5.32519 4.76039C4.7604 5.24449 4.1956 5.72861 3.63081 6.13203C3.1467 5.56724 2.74328 5.00244 2.25917 4.43765C2.82396 4.03423 3.38876 3.63081 3.95355 3.06602ZM16.1369 28.8851C16.5403 29.4499 17.0245 30.0147 17.5086 30.6601C16.9438 31.1443 16.379 31.5477 15.8142 32.0318C15.4108 31.467 14.9267 30.9829 14.4426 30.3374C15.0073 29.7726 15.5721 29.3692 16.1369 28.8851C16.1369 28.8044 16.1369 28.8044 16.1369 28.8851C15.6528 28.3203 15.2494 27.7555 14.6846 27.11C13.4743 28.0782 12.3447 29.0465 11.1345 30.0147C10.6504 29.3692 10.1663 28.8044 9.68215 28.2396C10.2469 27.7555 10.7311 27.3521 11.3765 26.868C9.92421 25.0122 8.47189 23.3178 7.01957 21.5428V21.4621V21.5428C8.22984 20.5746 9.35942 19.6064 10.5697 18.5575C11.0538 19.1222 11.5379 19.687 11.9413 20.2518C12.5868 19.687 13.1516 19.2836 13.7164 18.7995C13.2323 18.154 12.7482 17.6699 12.3447 17.1051C12.9095 16.621 13.4743 16.1369 14.0391 15.7335C13.4743 15.088 13.0709 14.5232 12.5868 13.9584C11.9413 14.4425 11.4572 14.9266 10.8924 15.3301C9.92421 14.2005 9.03668 12.9902 7.98778 11.78C9.19805 10.8117 10.3276 9.84352 11.5379 8.8753C11.0538 8.22983 10.5697 7.74572 10.0856 7.10025C10.7311 6.61614 11.2152 6.13203 11.8606 5.64792C14.2812 8.55257 16.621 11.4572 19.1223 14.5232C18.5575 14.9266 18.0734 15.4108 17.4279 15.8949C17.912 16.5403 18.3961 17.0244 18.9609 17.7506C20.0905 16.7824 21.3007 15.8142 22.4303 14.9266H22.511H22.4303C21.9462 14.3619 21.5428 13.7971 21.0587 13.2323C22.269 12.2641 23.3985 11.3765 24.5281 10.3276C24.9315 10.8924 25.4157 11.3765 25.8998 12.022C24.6895 12.9902 23.5599 13.9584 22.4303 14.9266C22.9144 15.4914 23.3179 16.0562 23.8826 16.7017C25.0929 15.7335 26.2225 14.7653 27.5135 13.7164C28.0782 14.3619 28.4817 14.9266 28.9658 15.4914C29.5306 15.0073 30.0954 14.6039 30.7408 14.0391C30.2567 13.4743 29.8533 12.9095 29.2885 12.2641C29.934 11.7799 30.4181 11.2958 31.0636 10.8117C30.5795 10.1663 30.0954 9.68215 29.6113 9.03667C29.0465 9.44009 28.5624 9.9242 27.9169 10.4083C27.4328 9.76283 26.9487 9.27873 26.4646 8.63325C28.1589 7.26161 29.934 5.80929 31.7897 4.27629C32.2738 4.84108 32.6773 5.40586 33.1614 5.97065V6.05134C32.5966 6.53545 32.0318 7.01956 31.467 7.42298C32.0318 8.06846 32.4352 8.63325 32.9193 9.19804C33.5648 8.71393 34.0489 8.22983 34.6137 7.8264C35.0978 8.39119 35.5012 8.95598 36.066 9.60146C36.7115 9.11735 37.1956 8.63326 37.8411 8.14915C38.89 9.35942 39.7775 10.489 40.7457 11.6993C40.1809 12.1834 39.6161 12.5868 39.0514 13.0709C38.5672 12.5061 38.1638 11.9413 37.6797 11.3765C36.4694 12.4254 35.3399 13.313 34.1296 14.2812C34.6137 14.846 35.0171 15.3301 35.5819 16.0562C31.9511 19.0416 28.401 21.9462 24.8509 24.8509C24.3668 24.2861 23.8826 23.802 23.3179 23.1565C22.7531 23.5599 22.269 24.044 21.6235 24.6088C20.0905 22.7531 18.7188 21.0587 17.2665 19.2836C16.0562 20.3325 14.9267 21.22 13.7164 22.1883C14.2005 22.7531 14.6039 23.2372 15.088 23.8826C15.6528 23.4792 16.2176 22.9951 16.7824 22.511C18.3154 24.3667 19.6871 26.0611 21.1394 27.8362C20.5746 28.3203 20.0905 28.7237 19.445 29.2078C19.0416 28.643 18.5575 28.1589 17.9927 27.4328C17.3472 27.9169 16.7017 28.3203 16.1369 28.8851C16.1369 28.8851 16.1369 28.8044 16.1369 28.8851ZM26.2225 26.6259C26.2225 26.5452 26.2225 26.5452 26.2225 26.6259C26.2225 26.5452 26.2225 26.5452 26.2225 26.6259ZM19.1223 32.5159C19.6871 32.0318 20.2518 31.6284 20.8166 31.1443C21.2201 31.709 21.7042 32.1932 22.1883 32.7579C21.6235 33.2421 21.0587 33.7262 20.4939 34.1296C20.0098 33.5648 19.6064 33.0807 19.1223 32.5159ZM31.0636 43.4083C30.5795 42.8435 30.0954 42.2787 29.6919 41.7139C30.2567 41.2298 30.8215 40.7457 31.3863 40.3423C30.8215 39.6968 30.4181 39.132 29.934 38.5672C29.2885 39.0513 28.8044 39.5354 28.2396 39.9389C27.7555 39.3741 27.2714 38.7286 26.7873 38.1638C27.9976 37.1956 29.1271 36.2274 30.3374 35.2592C29.3692 34.0489 28.401 32.9193 27.4328 31.709C26.7873 32.2738 26.2225 32.7579 25.6577 33.1614C24.6895 32.0318 23.802 30.9022 22.7531 29.6112C23.3985 29.1271 23.9633 28.643 24.5281 28.1589C25.0122 28.7237 25.4963 29.2885 25.9804 29.934C26.6259 29.3692 27.1907 28.8851 27.7555 28.4817C28.2396 29.0465 28.643 29.6112 29.2078 30.2567C29.8533 29.7726 30.3374 29.2885 30.9829 28.8044C31.467 29.4499 31.9511 29.934 32.4352 30.5795C31.8704 30.9829 31.3863 31.467 30.6601 32.0318C31.2249 32.6773 31.709 33.2421 32.1125 33.8875C32.6773 33.4034 33.2421 33 33.8069 32.5159C35.2592 34.291 36.6308 35.9853 38.1638 37.8411C35.824 39.5354 33.4841 41.4719 31.0636 43.4083ZM40.423 32.8386C38.0024 29.934 35.6626 27.0293 33.1614 23.9633C36.066 21.6235 38.9707 19.2029 42.0367 16.7017C44.4572 19.687 46.8778 22.5917 49.2983 25.577C46.313 27.9976 43.4083 30.4181 40.423 32.8386Z" fill="black"/>
<path d="M34.9379 37.2749C33.9697 36.0647 33.0015 34.9351 32.114 33.8055C31.5492 34.2896 30.9037 34.7737 30.3389 35.2578C31.3071 36.3874 32.2753 37.5977 33.1629 38.7272C33.8084 38.1625 34.3731 37.759 34.9379 37.2749Z" fill="black"/>
<path d="M30.4176 17.1064C29.9335 16.4609 29.4494 15.9768 29.046 15.412C27.9164 16.3802 26.7062 17.3484 25.5766 18.3167C26.0607 18.9621 26.5448 19.5269 26.9482 20.011C28.0778 18.9621 29.2074 18.0746 30.4176 17.1064Z" fill="black"/>
<path d="M8.15092 44.4565C8.71572 45.1827 9.36119 45.9088 9.92598 46.635H12.9113C12.4272 45.9895 11.8624 45.4247 11.3783 44.7792C13.1534 43.3269 14.8477 41.9553 16.6228 40.503C18.0751 42.278 19.4468 43.9724 20.8991 45.7475C20.4957 46.0702 20.1729 46.3929 19.7695 46.7157H23.481C23.723 46.5543 23.9651 46.3122 24.1265 46.1509C21.6253 43.1655 19.2854 40.1802 16.8649 37.2756C13.9602 39.6961 11.0556 42.036 8.15092 44.4565Z" fill="black"/>
<path d="M28.7222 0.56479C28.5609 0.403421 28.3995 0.242059 28.3188 0.0806895H25.3335C25.4142 0.161374 25.4142 0.161372 25.4949 0.242056C23.7198 1.69438 22.0254 3.06602 20.2504 4.51834C19.0401 3.06602 17.8298 1.53301 16.6196 0H13.6342C15.732 2.58191 17.8298 5.16382 20.0083 7.74573C22.8323 5.40587 25.8176 2.98533 28.7222 0.56479Z" fill="black"/>
<path d="M23.559 19.6877C23.0749 19.1229 22.6715 18.5581 22.1874 17.9933C21.6226 18.4774 21.0578 18.8808 20.493 19.365C20.9771 20.0104 21.4612 20.4945 21.8646 21.0593C22.4294 20.5752 22.9942 20.1718 23.559 19.6877Z" fill="black"/>
<path d="M52.2845 36.6296V46.6345L65.9202 32.9988H55.9153C53.8982 32.9988 52.2845 34.6125 52.2845 36.6296Z" fill="#00786E"/>
</svg>
